<?xml version="1.0" encoding="UTF-8" standalone="no"?>
<!DOCTYPE svg PUBLIC "-//W3C//DTD SVG 1.1//EN" "http://www.w3.org/Graphics/SVG/1.1/DTD/svg11.dtd">
<svg width="100%" height="100%" viewBox="0 0 2048 2048" version="1.1" xmlns="http://www.w3.org/2000/svg" xmlns:xlink="http://www.w3.org/1999/xlink" xml:space="preserve" xmlns:serif="http://www.serif.com/" style="fill-rule:evenodd;clip-rule:evenodd;stroke-linejoin:round;stroke-miterlimit:2;">
    <g id="Background" transform="matrix(1.737305,0,0,1.737305,376,133)">
        <path d="M161.501,1.468C162.837,1.795 164.173,2.122 165.509,2.448C179.944,5.316 184.278,8.129 185.704,9.055C186.628,9.219 187.551,9.384 188.475,9.549C191.102,11.78 191.575,10.776 194.471,12.548C198.545,15.04 198.729,14.617 200.431,15.631C200.475,15.664 200.994,17.023 203.276,17.784C203.694,17.993 204.113,18.203 204.532,18.413C204.873,18.742 205.215,19.072 205.557,19.402C205.601,19.426 207.143,20.85 209.485,21.519C212.231,23.167 211.869,24.03 218.501,27.498C219.143,27.862 219.785,28.226 220.427,28.59C223.387,31.152 223.498,30.922 226.586,33.36C227.9,34.69 227.881,34.559 229.459,35.538C230.123,36.406 230.224,36.187 232.448,38.549C235.888,42.203 235.566,42.402 239.12,45.887C242.225,48.931 248.064,59.566 248.675,61.325C250.038,61.894 250.026,61.894 251.494,61.43C251.832,61.389 269.152,58.19 271.507,57.545C271.645,57.507 271.54,57.523 305.49,57.088C343.668,56.598 361.202,61.787 374.501,62.489C375.943,62.935 375.848,63.019 377.347,62.901C378.857,63.591 392.203,65.322 393.501,65.49C394.947,65.946 394.849,66.002 396.344,65.895C397.388,66.39 397.309,66.371 398.503,66.449C399.52,66.753 400.536,67.056 401.553,67.359C403.481,67.784 418.176,71.018 425.411,73.696C440.193,79.166 440.441,78.518 441.58,79.277C442.573,79.641 443.567,80.004 444.56,80.367C445.015,80.64 444.975,80.564 446.325,80.935C446.325,80.935 447.415,81.408 447.51,81.449C448.905,82.006 448.867,82.068 450.33,81.915C451.854,82.823 451.834,82.657 453.527,83.37C454.522,83.741 455.517,84.111 456.512,84.482C457.631,85.203 457.531,85.166 457.631,85.203C458.529,85.543 458.53,85.283 459.425,85.678C462.952,87.236 462.999,86.942 466.515,88.427C467.939,89.179 467.811,89.321 469.469,89.547C469.796,89.691 469.768,89.723 473.524,91.43C475.279,92.869 475.35,92.62 477.498,93.503C478.986,94.285 479.262,94.677 480.319,93.354C485.383,87.015 486.268,87.912 490.8,82.734C497.45,75.135 508.902,68.874 510.522,67.53C511.502,67.152 512.482,66.775 513.461,66.397C513.63,66.354 513.505,65.963 513.674,65.919C514.152,65.796 514.082,65.92 514.581,65.689C515.643,65.2 515.639,65.38 516.676,64.908C526.422,60.465 526.382,60.576 527.66,59.827C529.733,58.614 532.041,57.263 556.511,51.539C569.819,48.426 598.138,50.524 621.487,62.535C622.381,63.272 622.324,63.302 623.464,63.547C625.845,65.257 626.077,64.765 628.526,66.444C629.18,66.801 629.834,67.157 630.489,67.514C630.739,67.657 632.433,68.626 633.546,69.417C634.925,70.661 634.931,70.559 636.514,71.484C636.76,71.634 638.417,72.65 639.519,73.467C640.16,73.836 640.801,74.205 641.442,74.574C642.601,75.402 648.906,79.903 655.553,85.414C657.184,87.341 657.262,87.143 659.426,88.576C662.785,91.781 664.017,93.169 664.392,93.591C664.789,94.209 665.187,94.827 665.584,95.445C665.793,95.786 667.055,97.855 668.498,99.501C668.783,100.652 668.815,100.587 669.555,101.48C669.752,101.902 671.144,104.88 672.52,106.485C672.699,108.115 672.843,108.017 673.697,109.404C674.735,112.196 675.744,111.597 676.726,114.395C677.177,115.68 678.676,116.517 679.515,119.493C679.768,121.13 679.869,121.047 680.6,122.467C680.832,124.093 680.95,123.986 681.637,125.455C681.842,126.362 682.444,127.333 682.537,127.484C682.864,128.489 683.19,129.493 683.517,130.497C683.913,131.344 683.403,131.458 687.628,141.446C687.96,142.455 688.291,143.465 688.623,144.475C689.335,146.027 690.358,150.938 690.476,151.508L690.911,154.391C691.393,156.67 692.826,163.43 691.526,183.502C691.194,184.507 690.863,185.512 690.531,186.517C689.849,188.506 689.964,188.478 689.599,190.513C689.275,191.528 688.95,192.542 688.626,193.556C688.139,194.327 685.707,201.791 676.522,221.508C676.178,222.17 675.834,222.831 675.489,223.493C673.908,226.965 670.834,231.748 670.389,232.441C666.757,238.095 666.999,238.152 666.608,238.575C666.213,239.197 665.819,239.819 665.425,240.441C648.728,258.991 649.956,259.944 639.449,270.448C637.94,271.454 637.941,271.359 636.61,272.658C632.552,276.011 632.086,276.436 633.503,281.498C633.853,282.497 634.203,283.496 634.553,284.494C634.572,284.646 634.791,286.392 634.791,286.392C636.52,290.044 636.669,293.497 636.925,294.37C638.442,299.532 638.968,299.292 640.518,304.489C640.685,306.596 640.709,306.532 641.546,308.492C642.16,309.829 643.732,317.602 643.893,318.401C644.818,322.973 645.224,322.797 645.75,327.461C649.785,363.189 648.172,370.24 646.529,404.502C646.238,405.516 645.947,406.531 645.657,407.545L645.517,409.502C644.978,410.905 644.905,410.846 645.119,412.33C643.055,415.618 643.326,415.692 642.562,419.512C641.925,421.532 641.848,421.44 641.575,423.511C641.327,425.269 641.398,425.286 641.307,425.41C638.885,428.73 636.303,441.423 634.601,443.557C633.306,445.18 630.497,452.678 629.721,453.629C629.055,454.445 625.632,464.005 622.739,467.651C620.647,470.286 621.738,470.864 619.627,473.563C619.148,474.463 618.668,475.364 618.189,476.264C617.42,478.05 610.644,488.942 607.574,492.55C607.201,493.187 606.827,493.824 606.454,494.461C604.685,496.336 601.787,500.333 598.652,503.628C597.193,505.139 595.893,506.426 595.65,506.667C589.007,513.944 589.195,514.006 588.537,514.544C588.099,514.902 585.606,516.941 583.262,519.26C577.374,525.086 577.964,525.687 570.903,529.979C570.466,530.245 571.011,531.488 568.438,532.395C564.99,533.611 565.948,534.969 562.589,536.646C558.711,538.583 559.419,539.607 555.465,541.451C554.82,541.819 554.174,542.187 553.528,542.554C551.759,543.056 548.817,545.138 548.436,545.407C547.791,545.773 547.147,546.139 546.503,546.505C545.873,546.868 545.243,547.232 544.613,547.595C544.505,551.517 545.83,551.247 547.285,554.595C554.125,570.328 559.687,593.999 560.509,597.495C560.809,599.639 560.719,599.573 561.532,601.498C562.3,608.795 564.757,615.469 565.187,616.638C564.988,618.094 565.058,618.055 565.524,619.499C565.868,623.789 567.318,629.091 567.56,632.497C568.426,644.683 569.452,644.45 569.482,645.502C569.848,658.319 569.795,658.3 569.966,660.479C571.384,678.49 569.763,678.44 569.526,696.5C569.359,709.21 564.658,716.063 573.371,713.113C574.017,712.895 580.817,710.592 581.418,710.293C584.22,708.901 585.96,709.582 587.412,709.162C593.859,707.297 608.808,707.915 614.551,710.366C619.38,712.427 619.677,711.389 624.51,713.445C625.51,713.791 626.511,714.137 627.512,714.483C633.081,717.208 633.091,717.141 633.525,717.456C634.171,717.82 634.816,718.184 635.461,718.548C637.846,720.728 638.051,720.374 640.573,722.383C641.314,723.13 641.479,724.671 644.556,725.44C646.287,727.358 648.147,729.212 648.468,729.532C658.136,739.169 657.65,742.984 660.464,746.521C660.818,747.176 661.172,747.831 661.526,748.486C664.944,754.81 664.628,754.88 667.44,761.536C667.809,762.519 668.179,763.502 668.548,764.485C668.882,765.486 669.217,766.488 669.551,767.489C670.072,768.658 670.053,768.557 670.072,768.658C673.021,784.41 672.597,784.413 672.49,800.499C672.073,801.95 672.004,801.887 672.073,803.349C670.524,809.495 670.086,819.038 665.493,828.497C665.14,829.151 664.788,829.804 664.436,830.457C662.776,834.369 658.179,840.698 657.566,841.542C656.771,842.44 656.759,842.329 656.432,843.44C649.939,850.026 650.529,850.46 644.592,857.566C643.362,858.937 643.446,858.926 642.445,860.454C642.215,860.703 640.25,862.829 639.503,863.503C637.13,865.647 633.037,869.918 632.489,870.49C623.229,880.152 621.793,880.125 615.522,885.531C613.687,887.113 606.71,891.218 606.445,891.408C599.74,896.219 599.329,895.537 598.777,895.99C595.688,898.527 583.55,903.956 582.552,904.606C578.963,906.945 576.258,907.704 575.671,907.869C573.277,908.541 573.676,909.307 571.278,910.045C563.802,912.345 561.638,914.502 559.449,915.424C558.797,915.779 558.146,916.133 557.494,916.487C556.826,916.815 556.158,917.143 555.49,917.47C553.5,918.114 553.497,918.076 553.34,918.166C548.666,920.834 548.316,919.886 544.325,922.124C536.728,926.385 528.772,928.431 534.513,929.473C536.091,929.759 535.911,929.999 537.522,930.455C538.375,931.228 538.282,931.219 539.445,931.568C540.768,932.532 540.729,932.501 542.285,932.945C542.673,933.056 545.23,934.412 545.483,934.546C546.136,934.893 546.789,935.24 547.442,935.586C547.812,935.86 548.182,936.134 548.552,936.408C549.182,936.793 549.813,937.178 550.444,937.563C559.648,946.621 560.87,950.433 561.815,954.383C562.224,956.091 565.064,967.962 560.154,976.28C559.219,977.865 559.713,978.046 558.491,979.494C554.509,984.213 554.723,984.306 551.433,987.423C550.8,987.802 550.167,988.18 549.534,988.559C538.007,996.713 523.141,992.37 519.587,994.657C519.103,994.969 514.277,998.075 513.458,998.442C512.819,998.818 512.18,999.194 511.541,999.57C506.918,1003.513 490.37,1003.498 488.5,1003.496C487.801,1003.306 487.101,1003.115 486.402,1002.925C481.074,1001.849 481.022,1002.177 477.418,1000.719C476.757,1000.452 476.789,1000.612 475.579,1000.698C474.874,1000.748 475.1,1001.051 474.496,1001.497C474.141,1002.145 473.785,1002.793 473.43,1003.44C465.004,1012.294 465.325,1012.832 454.304,1018.055C452.863,1017.926 452.911,1018.002 451.5,1018.504C444.133,1018.825 437.941,1019.373 433.555,1016.402C433.153,1016.13 433.188,1016.271 432.74,1016.081C432.579,1016.012 431.364,1015.496 430.823,1015.022C430.487,1014.727 430.665,1014.069 430.329,1013.775C428.755,1013.653 428.698,1013.512 427.533,1014.552C421.081,1019.906 414.843,1021.571 413.628,1021.896C408.883,1023.163 408.9,1022.969 400.497,1022.528C399.488,1022.207 398.479,1021.887 397.47,1021.566C391.262,1018.229 389.184,1018.149 383.427,1012.584C382.435,1011.501 382.491,1011.562 381.498,1010.501C378.821,1006.861 378.047,1000.581 375.491,1000.638C367.828,1000.809 356.549,1003.317 345.569,990.446C345.193,989.809 344.817,989.172 344.44,988.534C342.438,985.725 343.236,985.402 341.463,982.517C341.127,981.513 340.79,980.509 340.454,979.506C339.732,976.537 339.907,976.507 339.312,975.698L340.375,974.5C345.707,978.454 345.07,973.453 351.609,963.569C352.828,961.726 359.801,953.131 370.669,948.972C372.462,948.285 375.16,950.764 397.052,919.18C420.07,885.971 424.709,854.946 441.012,788.383C449.938,751.939 446.018,751.507 446.469,724.514C446.499,722.746 445.634,723.881 444.03,724.435C444.312,708.422 431.953,681.07 412.174,663.885C401.416,654.538 377.183,632.183 336.493,627.558C326.92,626.469 297.598,629.906 278.601,638.708C215.579,667.911 219.383,701.189 220.304,713.533C220.316,713.688 220.334,713.674 220.697,715.433C219.885,715.491 219.251,714.442 218.439,714.5C217.91,714.538 213.623,729.924 217.539,751.493C222.868,780.843 221.467,781.116 230.881,810.378C245.342,855.333 244.447,855.523 245.707,859.424C267.944,928.281 277.634,938.901 282.629,944.375C287.313,949.509 305.461,944.68 314.99,969.307C316.708,973.746 319.212,973.831 321.201,973.5L322.689,974.775L322.475,975.485C321.262,976.89 321.704,977.083 320.73,978.604C317.616,986.127 317.784,986.307 311.665,991.664C310.826,992.368 310.789,992.245 310.399,993.325C306.21,994.992 303.719,997.237 295.604,998.85C294.903,999.067 294.202,999.285 293.5,999.503C286.856,999.431 286.986,999.007 280.474,997.846C276.871,997.203 279.601,1001.408 266.222,1013.206C265.69,1013.675 265.831,1013.736 265.268,1014.24C264.454,1014.968 264.335,1014.712 263.488,1015.485C262.832,1015.846 262.177,1016.207 261.522,1016.568C259.746,1017.385 259.757,1017.357 259.516,1017.523C258.511,1017.861 257.507,1018.198 256.502,1018.535C250.918,1018.92 250.961,1019.932 245.439,1018.823C245.207,1018.777 245.221,1018.802 242.497,1018.534C241.501,1018.185 240.504,1017.837 239.508,1017.488C237.571,1016.253 237.361,1016.825 235.491,1015.516C234.853,1015.145 234.215,1014.774 233.576,1014.403C229.079,1010.489 229.125,1010.58 228.75,1010.235C226.671,1008.328 226.556,1008.503 224.842,1006.245C224.151,1005.335 224.048,1005.517 223.398,1004.651C222.619,1003.611 222.69,1004.785 222.488,1004.823C222.187,1004.761 221.887,1004.699 221.587,1004.637C216.077,1010.795 215.82,1010.452 208.304,1014.061C206.834,1013.94 206.931,1014.004 205.499,1014.488C202.165,1014.505 198.831,1014.522 195.498,1014.538C194.485,1014.227 193.472,1013.915 192.459,1013.603C184.587,1011.733 177.524,1001.792 176.568,1000.447C176.241,999.785 175.914,999.122 175.588,998.46L175.416,997.553C173.099,995.527 172.566,997.563 172.544,997.582C171.556,997.955 170.569,998.329 169.581,998.703C168.888,998.971 168.194,999.24 167.501,999.508C161.976,999.715 162.084,999.786 156.498,999.53C155.114,999.051 155.172,998.972 153.673,999.192C150.089,996.668 149.552,998.075 146.511,996.47C145.597,995.769 145.661,995.754 144.499,995.501C141.449,992.496 141.484,992.559 138.561,989.449C138.206,988.8 137.851,988.151 137.496,987.501C137.395,987.296 136.863,986.213 136.25,984.924C134.746,984.883 134.868,985.023 133.499,985.494C132.981,985.497 126.901,986.14 118.492,984.582C117.007,983.951 117.082,983.856 115.441,983.632C114.594,982.995 113.637,982.61 113.47,982.543C109.294,980.864 104.235,976.145 103.521,975.479C102.929,974.775 102.337,974.072 101.744,973.368C94.707,956.999 101.841,947.981 103.188,946.279C106.5,942.092 106.706,942.409 110.315,938.349C110.753,937.795 111.191,937.241 111.629,936.687C112.246,936.255 118.07,932.176 119.575,931.626C120.56,931.286 121.544,930.947 122.529,930.607C123.14,930.507 123.751,930.407 124.362,930.307C124.376,930.031 124.389,929.754 124.403,929.477C124.43,929.15 125.061,929.097 125.089,928.77C125.122,928.374 123.907,928.656 122.282,926.701C121.988,926.347 121.595,925.874 117.497,923.506C116.855,923.139 116.214,922.773 115.573,922.407C113.81,920.616 113.48,921.158 111.497,919.505C110.934,919.036 105.509,914.515 104.201,913.981C100.42,912.435 100.93,911.678 97.447,909.584C96.82,909.197 96.193,908.81 95.566,908.423C92.55,905.621 92.516,905.663 88.536,904.455C88.312,903.328 88.333,903.337 87.429,902.601C83.926,900.5 84.178,900.289 80.592,898.301C80.157,898.06 80.164,898.237 79.65,898.127C79.461,898.087 79.648,897.622 79.46,897.582C78.587,896.732 78.663,896.716 77.504,896.496C76.404,895.254 67.86,889.771 67.509,889.485C67.2,889.234 64.423,886.973 63.427,886.626C62.793,886.241 62.159,885.857 61.525,885.473C61.364,885.316 60.514,884.483 59.437,883.596C58.811,883.209 58.185,882.823 57.558,882.436C54.702,879.621 54.395,880.134 51.562,877.429C35.07,861.681 35.381,861.414 33.885,860.117C32.731,859.117 33.33,858.732 32.288,857.679C31.501,856.883 31.277,857.302 30.518,856.484C30.222,855.336 30.156,855.411 29.39,854.567C26.566,851.793 26.738,851.738 26.492,851.508C25.126,849.363 25.23,849.405 23.384,847.567C21.437,845.857 21.639,845.67 21.458,845.539C21.158,844.401 21.123,844.462 20.381,843.578C19.589,842.592 14.567,836.34 11.476,830.518C10.557,828.379 10.954,828.222 9.479,826.505C6.794,820.661 5.569,814.611 5.353,813.545C5.059,812.53 4.765,811.516 4.471,810.502C1.542,791.604 0.854,791.699 1.49,772.5C2.206,770.028 2.322,770.111 2.517,767.506C4.474,758.959 5.168,759.187 5.327,758.445C6.664,756.029 6.39,755.983 7.325,753.427C8.224,750.337 9.011,750.761 9.44,749.472C9.805,749.101 10.268,749.357 10.751,746.738C13.789,742.661 13.076,742.28 16.384,738.42C16.775,737.797 17.165,737.173 17.555,736.55C23.473,730.486 23.371,730.407 23.89,729.885C28.616,725.126 32.557,722.446 34.56,720.573C35.195,720.196 35.83,719.819 36.464,719.443C36.818,719.139 37.171,718.836 37.525,718.532C39.57,717.56 39.481,717.616 41.415,716.328C41.612,716.254 43.557,714.893 43.741,714.765C45.616,714.162 45.253,713.716 45.493,713.486C46.659,713.189 46.599,713.195 47.49,712.474C49.142,711.64 49.151,711.749 50.513,710.523C52.592,710.19 52.538,710.236 54.481,709.411C58.149,707.887 73.275,706.161 73.476,706.151C88.76,705.34 94.477,709.571 93.404,705.508C91.634,698.803 89.63,661.217 90.587,652.51C91.36,645.478 89.059,645.455 90.541,638.51C91.787,632.67 93.963,597.405 94.731,594.564C96.47,588.136 97.231,575.341 99.684,568.569C100.672,565.842 103.289,555.601 103.448,554.494C104.156,553.055 104.265,553.14 104.445,551.482C104.802,550.491 105.159,549.5 105.516,548.51C107.215,543.295 112.713,532.174 113.448,526.502C113.255,524.857 113.167,524.969 112.541,523.482C111.847,519.609 111.142,519.912 110.363,518.565C109.507,517.441 109.463,517.615 98.198,505.773C84.748,491.634 84.595,491.788 83.549,490.453C82.54,488.963 82.628,488.978 81.368,487.599C70.303,474.637 70.397,474.661 69.382,473.591C65.762,469.777 59.799,460.64 59.463,460.537C58.07,460.108 58.58,458.637 56.493,456.506C56.128,455.856 55.764,455.205 55.399,454.555C55.103,454.2 54.808,453.845 54.512,453.49C54.14,452.846 53.768,452.202 53.396,451.558C53.144,450.395 53.124,450.459 52.346,449.579C52.065,449.219 51.783,448.859 51.502,448.499C51.27,447.301 51.213,447.388 50.424,446.537C46.072,440.002 47.575,439.245 43.365,432.558C42.749,431.579 37.422,417.594 36.506,414.497C36.319,412.82 36.19,412.954 35.483,411.502C32.234,398.39 32.41,398.367 31.824,397.355C30.983,395.903 31.84,392.852 28.913,377.367C29.001,375.838 28.877,375.924 28.495,374.5C28.488,373.623 28.416,365.328 28.156,363.543C26.462,351.903 27.679,351.888 28.489,331.499C28.837,329.837 29.185,328.174 29.534,326.511C30.583,323.119 30.339,315.736 39.015,285.314C39.59,283.297 43.254,270.452 47.406,260.477C48.028,258.988 48.113,259.113 48.362,257.441C48.745,255.918 53.814,246.457 54.31,244.432C54.706,243.454 55.102,242.477 55.498,241.499C55.793,241.052 57.454,238.537 58.294,235.422C59.047,233.966 59.163,234.071 59.421,232.45C60.203,231.363 60.162,231.462 60.203,231.363C62.42,226.13 63.131,226.576 65.452,221.474C66.162,220.585 66.19,220.651 66.47,219.486C66.822,218.83 67.173,218.173 67.525,217.517C68.453,215.475 68.523,215.577 69.43,213.479C69.797,212.827 70.164,212.174 70.53,211.522C73.388,205.437 69.067,206.279 64.911,200.229C64.621,199.807 64.598,199.952 60.866,195.254C55.864,188.956 56.034,188.952 55.559,188.451C55.187,187.813 54.815,187.175 54.443,186.538C54.231,186.198 52.784,183.873 51.573,182.439C51.187,181.809 50.801,181.178 50.414,180.548C49.957,179.198 49.391,179.622 48.9,178.265C48.728,177.793 48.734,177.891 48.547,177.468C48.187,176.818 47.826,176.168 47.466,175.518C47.251,175.025 45.448,170.896 44.545,169.472C44.185,168.821 43.824,168.17 43.464,167.52C43.181,165.935 43.092,166.019 42.288,164.584C42.114,164 41.133,160.71 39.388,157.548C39.041,156.543 38.694,155.537 38.346,154.531C37.623,152.889 35.357,143.492 34.815,142.361C34.995,140.806 34.891,140.903 34.468,139.501C34.284,132.008 33.276,121.903 36.346,109.472C37.258,105.778 38.761,95.044 39.437,93.492C39.747,92.479 40.056,91.466 40.366,90.453C41.162,87.183 45.793,68.156 58.415,52.45C59.224,51.593 59.282,51.661 59.536,50.534C60.975,49.307 60.972,49.321 61.09,49.208C61.398,48.916 61.051,48.757 61.393,48.432C61.783,47.807 62.173,47.182 62.563,46.558C72.721,36.171 76.808,33.181 79.572,30.58C80.344,30.101 80.906,30.72 81.63,28.693C83.312,27.489 83.414,27.681 83.55,27.565C84.183,27.183 84.816,26.801 85.448,26.418C85.807,26.123 86.166,25.827 86.524,25.532C87.171,25.166 87.818,24.801 88.465,24.435C89.285,23.991 94.443,21.194 98.552,18.595C100.901,17.109 100.374,16.71 100.571,16.596C100.765,16.484 101.802,16.964 103.589,15.661C103.931,15.41 107.871,13.442 108.725,12.889C113.324,9.916 113.813,11.094 118.44,8.363C119.45,8.028 120.459,7.693 121.469,7.359C124.167,6.221 124.208,6.434 124.434,6.325C136.842,0.329 158.514,1.33 161.501,1.468Z" style="fill:rgb(136,179,74);fill-opacity:1;"/>
        <path d="M220.697,715.433C220.334,713.674 220.316,713.688 220.304,713.533C219.383,701.189 215.579,667.911 278.601,638.708C297.598,629.906 326.92,626.469 336.493,627.558C377.183,632.183 401.416,654.538 412.174,663.885C431.953,681.07 444.312,708.422 444.03,724.435C443.133,729.225 443.071,729.961 443.029,730.447C439.253,774.825 434.693,778.851 427.271,813.439C421.706,839.369 420.3,838.9 413.839,864.601C407.574,889.522 389.407,924.154 371.856,938.91C355.646,952.538 346.095,949.417 340.375,974.5L339.312,975.698C335.726,974.122 326.823,974.759 322.689,974.775L321.201,973.5C322.431,966.012 317.721,951.154 303.552,945.383C281.546,936.42 283.593,930.845 274.081,910.692C254.079,868.31 237.626,795.143 232.968,779.371C231.492,774.376 225.311,753.45 220.697,715.433Z" style="fill:rgb(219,202,140);fill-opacity:1;"/>
        <path d="M174.441,90.038C176.072,89.624 188.932,86.353 195.319,92.681C202.727,100.019 202.18,112.25 182.499,130.498C181.998,130.962 118.919,184.672 112.241,145.539C108.373,122.872 151.29,93.026 174.441,90.038Z" style="fill:rgb(76,93,50);"/>
        <path d="M546.525,128.142C576.424,133.173 612.688,176.611 606.629,198.541C602.03,215.183 585.862,218.498 563.705,195.309C562.335,193.875 515.689,150.418 535.622,131.63C540.216,127.3 546.131,128.153 546.525,128.142Z" style="fill:rgb(76,93,50);"/>
        <path d="M145.468,181.06C149.681,180.542 157.102,178.686 166.232,184.89C169.495,187.107 173.572,191.497 175.035,193.8C198.833,231.296 121.251,250.09 101.797,233.152C81.137,215.162 113.793,184.61 145.468,181.06Z" style="fill:rgb(200,119,74);"/>
        <path d="M595.035,260.493C592.673,293.346 543.169,276.243 525.836,259.155C498.121,231.831 530.685,207.697 551.374,214.851C563.606,219.082 571.77,224.834 580.365,232.652C595.924,246.806 594.843,258.295 595.035,260.493Z" style="fill:rgb(200,119,74);"/>
        <path d="M175.342,994.5C165.681,969.673 183.697,959.424 182.403,954.521C178.702,940.501 166.048,924.675 149.35,882.563C136.444,850.014 113.347,811.448 96.996,728.418C96.732,727.075 97.266,727.01 94.442,711.505C93.846,708.234 97.193,706.938 98.243,709.605C108.862,736.582 126.841,818.009 158.766,879.36C161.796,885.182 160.635,885.677 171.992,909.26C175.787,917.142 174.839,917.51 178.904,925.292C180.653,928.64 193.584,956.486 192.164,958.263C172.978,982.275 180.788,986.807 179.212,992.445C178.519,994.927 177.908,994.534 175.342,994.5Z" style="fill:rgb(121,165,58);"/>
        <path d="M220.697,715.433C225.311,753.45 231.492,774.376 232.968,779.371C237.626,795.143 254.079,868.31 274.081,910.692C283.593,930.845 281.546,936.42 303.552,945.383C317.721,951.154 322.431,966.012 321.201,973.5C319.212,973.831 316.708,973.746 314.99,969.307C305.461,944.68 287.313,949.509 282.629,944.375C277.634,938.901 267.944,928.281 245.707,859.424C244.447,855.523 245.342,855.333 230.881,810.378C221.467,781.116 222.868,780.843 217.539,751.493C213.623,729.924 217.91,714.538 218.439,714.5C219.251,714.442 219.885,715.491 220.697,715.433Z" style="fill:rgb(121,165,58);"/>
        <path d="M444.03,724.435C445.634,723.881 446.499,722.746 446.469,724.514C446.018,751.507 449.938,751.939 441.012,788.383C424.709,854.946 420.07,885.971 397.052,919.18C375.16,950.764 372.462,948.285 370.669,948.972C359.801,953.131 352.828,961.726 351.609,963.569C345.07,973.453 345.707,978.454 340.375,974.5C346.095,949.417 355.646,952.538 371.856,938.91C389.407,924.154 407.574,889.522 413.839,864.601C420.3,838.9 421.706,839.369 427.271,813.439C434.693,778.851 439.253,774.825 443.029,730.447C443.071,729.961 443.133,729.225 444.03,724.435Z" style="fill:rgb(121,165,58);"/>
        <path d="M472.914,998.143C470.3,991.754 476.179,983.863 471.547,972.479C467.056,961.442 458.328,962.495 461.376,956.44C467.757,943.764 490.537,905.592 490.998,904.787C496.36,895.424 496.205,895.434 500.875,885.685C508.662,869.431 530.976,831.763 536.882,807.578C538.269,801.902 541.291,803.036 560.89,738.598C566.964,718.626 565.719,717.31 567.5,717.342C571.288,717.411 553.867,776.228 549.186,793.409C536.276,840.795 516.395,871.748 498.219,907.359C493.156,917.279 468.368,953.444 470.039,959.635C471.983,966.832 482.101,964.616 478.026,988.426C477.912,989.092 477.357,988.857 475.585,996.519C475.11,998.57 474.746,999.113 472.914,998.143Z" style="fill:rgb(121,165,58);"/>
        <path d="M341.508,210.933C344.089,210.539 345.17,211.169 351.657,208.927C376.634,200.295 386.27,186.2 390.495,181.495C393.391,178.27 398.379,179.464 398.353,183.498C398.321,188.602 371.777,213.157 346.462,216.209C314.252,220.092 296.196,191.353 286.965,175.241C282.379,167.238 287.413,164.157 290.363,165.772C296.305,169.025 301.78,208.916 341.508,210.933Z" style="fill:rgb(76,93,50);"/>
        <path d="M7.325,753.427C6.39,755.983 6.664,756.029 5.327,758.445C5.259,754.56 6.186,754.849 7.325,753.427Z" style="fill:rgb(125,155,50);fill-opacity:0.19;"/>
        <path d="M655.553,85.414C658.137,85.828 657.685,86.553 659.426,88.576C657.262,87.143 657.184,87.341 655.553,85.414Z" style="fill:rgb(146,165,47);fill-opacity:0.16;"/>
        <path d="M9.479,826.505C10.954,828.222 10.557,828.379 11.476,830.518C9.54,828.986 9.34,828.94 9.479,826.505Z" style="fill:rgb(150,173,44);fill-opacity:0.17;"/>
        <path d="M110.363,518.565C111.142,519.912 111.847,519.609 112.541,523.482C110.625,521.396 110.757,521.321 110.363,518.565Z" style="fill:rgb(122,163,70);fill-opacity:0.18;"/>
        <path d="M23.384,847.567C25.23,849.405 25.126,849.363 26.492,851.508C24.543,849.777 23.97,850.154 23.384,847.567Z" style="fill:rgb(140,159,43);fill-opacity:0.2;"/>
        <path d="M41.415,716.328C39.481,717.616 39.57,717.56 37.525,718.532C38.694,717.206 38.387,716.484 41.415,716.328Z" style="fill:rgb(130,166,52);fill-opacity:0.14;"/>
        <path d="M640.573,722.383C643.304,723.069 642.745,723.851 644.556,725.44C641.479,724.671 641.314,723.13 640.573,722.383Z" style="fill:rgb(127,146,57);fill-opacity:0.21;"/>
        <path d="M205.557,19.402L207.548,19.425C207.7,19.595 208.505,20.495 209.485,21.519C207.143,20.85 205.601,19.426 205.557,19.402Z" style="fill:rgb(126,156,52);fill-opacity:0.19;"/>
        <path d="M2.517,767.506C2.322,770.111 2.206,770.028 1.49,772.5C1.454,769.841 1.268,769.817 2.517,767.506Z" style="fill:rgb(121,150,53);fill-opacity:0.23;"/>
        <path d="M560.509,597.495C562.125,598.997 561.554,599.218 561.532,601.498C560.719,599.573 560.809,599.639 560.509,597.495Z" style="fill:rgb(145,173,49);fill-opacity:0.18;"/>
        <path d="M640.518,304.489C641.147,305.082 641.724,304.909 641.546,308.492C640.709,306.532 640.685,306.596 640.518,304.489Z" style="fill:rgb(142,174,50);fill-opacity:0.18;"/>
        <path d="M473.524,91.43C475.301,92.283 475.619,91.59 477.498,93.503C475.35,92.62 475.279,92.869 473.524,91.43Z" style="fill:rgb(137,165,46);fill-opacity:0.25;"/>
        <path d="M226.586,33.36C228.461,33.76 228.29,34.031 229.459,35.538C227.881,34.559 227.9,34.69 226.586,33.36Z" style="fill:rgb(157,176,35);fill-opacity:0.2;"/>
        <path d="M104.471,550.492L104.445,551.482C104.265,553.14 104.156,553.055 103.448,554.494C103.66,552.377 103.493,552.382 104.471,550.492Z" style="fill:rgb(137,157,47);fill-opacity:0.16;"/>
        <path d="M29.534,326.511C29.185,328.174 28.837,329.837 28.489,331.499C28.636,328.883 28.507,328.895 29.534,326.511Z" style="fill:rgb(110,138,62);fill-opacity:0.25;"/>
        <path d="M633.546,69.417C635.462,69.837 635.251,70.088 636.514,71.484C634.931,70.559 634.925,70.661 633.546,69.417Z" style="fill:rgb(141,162,41);fill-opacity:0.21;"/>
        <path d="M322.475,975.485C322.37,977.926 321.64,977.536 320.73,978.604C321.704,977.083 321.262,976.89 322.475,975.485Z" style="fill:rgb(111,139,53);fill-opacity:0.21;"/>
        <path d="M639.449,270.448C638.165,271.84 638.431,272.15 636.61,272.658C637.941,271.359 637.94,271.454 639.449,270.448Z" style="fill:rgb(125,157,48);fill-opacity:0.22;"/>
        <path d="M598.652,503.628C597.419,505.414 597.453,505.391 595.65,506.667C595.893,506.426 597.193,505.139 598.652,503.628Z" style="fill:rgb(108,141,58);fill-opacity:0.29;"/>
        <path d="M200.431,15.631C202.167,16.442 202.238,16.277 203.276,17.784C200.994,17.023 200.475,15.664 200.431,15.631Z" style="fill:rgb(136,161,41);fill-opacity:0.14;"/>
        <path d="M672.52,106.485C673.743,107.641 673.412,107.738 673.697,109.404C672.843,108.017 672.699,108.115 672.52,106.485Z" style="fill:rgb(162,184,39);fill-opacity:0.12;"/>
        <path d="M466.515,88.427C468.21,88.66 468.357,88.307 469.469,89.547C467.811,89.321 467.939,89.179 466.515,88.427Z" style="fill:rgb(157,182,48);fill-opacity:0.13;"/>
        <path d="M35.483,411.502C36.19,412.954 36.319,412.82 36.506,414.497C35.272,413.311 35.479,413.207 35.483,411.502Z" style="fill:rgb(157,175,59);fill-opacity:0.13;"/>
        <path d="M161.501,1.468C163.684,1.492 163.618,1.545 165.509,2.448C164.173,2.122 162.837,1.795 161.501,1.468Z" style="fill:rgb(120,149,48);fill-opacity:0.23;"/>
        <path d="M204.532,18.413C206.14,18.738 206.05,18.72 207.548,19.425L205.557,19.402C205.215,19.072 204.873,18.742 204.532,18.413Z" style="fill:rgb(126,146,32);fill-opacity:0.13;"/>
        <path d="M624.51,713.445C626.232,713.455 626.328,713.258 627.512,714.483C626.511,714.137 625.51,713.791 624.51,713.445Z" style="fill:rgb(153,180,46);fill-opacity:0.16;"/>
        <path d="M633.503,281.498C634.72,282.664 634.535,282.754 634.553,284.494C634.203,283.496 633.853,282.497 633.503,281.498Z" style="fill:rgb(156,180,42);fill-opacity:0.15;"/>
        <path d="M681.009,121.6C681.269,122.583 681.208,122.504 681.637,125.455C680.95,123.986 680.832,124.093 680.6,122.467L681.009,121.6Z" style="fill:rgb(120,147,41);fill-opacity:0.2;"/>
        <path d="M259.516,1017.523C258.322,1018.71 258.27,1018.524 256.502,1018.535C257.507,1018.198 258.511,1017.861 259.516,1017.523Z" style="fill:rgb(146,174,47);fill-opacity:0.18;"/>
        <path d="M644.592,857.566C643.618,859.119 643.714,859.125 642.445,860.454C643.446,858.926 643.362,858.937 644.592,857.566Z" style="fill:rgb(107,140,64);fill-opacity:0.25;"/>
        <path d="M192.459,1013.603C193.472,1013.915 194.485,1014.227 195.498,1014.538C193.78,1014.519 193.715,1014.711 192.459,1013.603Z" style="fill:rgb(139,166,45);fill-opacity:0.21;"/>
        <path d="M619.627,473.563C619.304,475.215 619.54,475.334 618.189,476.264C618.668,475.364 619.148,474.463 619.627,473.563Z" style="fill:rgb(150,184,45);fill-opacity:0.15;"/>
        <path d="M81.368,487.599C82.628,488.978 82.54,488.963 83.549,490.453C82.263,489.124 82.382,489.154 81.368,487.599Z" style="fill:rgb(110,139,52);fill-opacity:0.26;"/>
        <path d="M398.503,66.449C400.211,66.474 400.251,66.262 401.553,67.359C400.536,67.056 399.52,66.753 398.503,66.449Z" style="fill:rgb(139,163,44);fill-opacity:0.21;"/>
        <path d="M52.346,449.579C53.124,450.459 53.144,450.395 53.396,451.558L53.468,452.521C52.772,451.097 52.723,451.168 52.346,449.579Z" style="fill:rgb(119,137,33);fill-opacity:0.18;"/>
        <path d="M239.508,1017.488C240.504,1017.837 241.501,1018.185 242.497,1018.534C240.769,1018.488 240.714,1018.686 239.508,1017.488Z" style="fill:rgb(144,168,45);fill-opacity:0.21;"/>
        <path d="M101.744,973.368C102.337,974.072 102.929,974.775 103.521,975.479C102.51,974.52 102.533,974.565 101.744,973.368Z" style="fill:rgb(162,181,34);fill-opacity:0.16;"/>
        <path d="M42.288,164.584C43.092,166.019 43.181,165.935 43.464,167.52C43.038,167.067 42.594,167.311 42.288,164.584Z" style="fill:rgb(143,164,38);fill-opacity:0.19;"/>
        <path d="M115.441,983.632C117.082,983.856 117.007,983.951 118.492,984.582C116.807,984.396 116.74,984.717 115.441,983.632Z" style="fill:rgb(135,160,44);fill-opacity:0.22;"/>
        <path d="M689.599,190.513C689.373,192.191 689.717,192.275 688.626,193.556C688.95,192.542 689.275,191.528 689.599,190.513Z" style="fill:rgb(139,161,39);fill-opacity:0.21;"/>
        <path d="M691.526,183.502C691.485,185.245 691.666,185.288 690.531,186.517C690.863,185.512 691.194,184.507 691.526,183.502Z" style="fill:rgb(141,165,44);fill-opacity:0.22;"/>
        <path d="M169.581,998.703L171.496,998.491C169.542,999.315 169.597,999.25 167.501,999.508C168.194,999.24 168.888,998.971 169.581,998.703Z" style="fill:rgb(105,136,53);fill-opacity:0.25;"/>
        <path d="M4.471,810.502C4.765,811.516 5.059,812.53 5.353,813.545C4.269,812.216 4.495,812.177 4.471,810.502Z" style="fill:rgb(136,158,42);fill-opacity:0.22;"/>
        <path d="M668.475,763.507C669.259,765.437 669.204,765.386 669.551,767.489C669.217,766.488 668.882,765.486 668.548,764.485L668.475,763.507Z" style="fill:rgb(102,129,63);fill-opacity:0.25;"/>
        <path d="M40.366,90.453C40.056,91.466 39.747,92.479 39.437,93.492C39.491,91.798 39.284,91.761 40.366,90.453Z" style="fill:rgb(131,158,43);fill-opacity:0.24;"/>
        <path d="M453.527,83.37C455.187,83.646 455.279,83.32 456.512,84.482C455.517,84.111 454.522,83.741 453.527,83.37Z" style="fill:rgb(136,161,44);fill-opacity:0.23;"/>
        <path d="M381.498,1010.501C382.491,1011.562 382.435,1011.501 383.427,1012.584C382.784,1011.89 382.141,1011.195 381.498,1010.501Z" style="fill:rgb(120,155,73);fill-opacity:0.22;"/>
        <path d="M59.421,232.45C59.163,234.071 59.047,233.966 58.294,235.422C58.603,233.777 58.364,233.72 59.421,232.45Z" style="fill:rgb(129,153,48);fill-opacity:0.2;"/>
        <path d="M646.529,404.502C646.497,406.172 646.72,406.209 645.657,407.545C645.947,406.531 646.238,405.516 646.529,404.502Z" style="fill:rgb(129,158,43);fill-opacity:0.23;"/>
        <path d="M48.362,257.441C48.113,259.113 48.028,258.988 47.406,260.477C47.598,258.838 47.29,258.778 48.362,257.441Z" style="fill:rgb(131,155,43);fill-opacity:0.24;"/>
        <path d="M105.516,548.51C105.159,549.5 104.802,550.491 104.445,551.482L104.471,550.492C104.745,549.358 104.723,549.401 105.516,548.51Z" style="fill:rgb(128,157,56);fill-opacity:0.22;"/>
        <path d="M667.44,761.536C668.219,762.438 668.204,762.364 668.475,763.507L668.548,764.485C668.179,763.502 667.809,762.519 667.44,761.536Z" style="fill:rgb(116,152,67);fill-opacity:0.2;"/>
        <path d="M430.329,1013.775C429.397,1014.034 428.465,1014.293 427.533,1014.552C428.698,1013.512 428.755,1013.653 430.329,1013.775Z" style="fill:rgb(103,138,56);fill-opacity:0.14;"/>
        <path d="M54.481,709.411C52.538,710.236 52.592,710.19 50.513,710.523C51.836,710.153 53.158,709.782 54.481,709.411Z" style="fill:rgb(100,129,52);fill-opacity:0.27;"/>
        <path d="M38.346,154.531C38.694,155.537 39.041,156.543 39.388,157.548C38.353,156.276 38.618,156.221 38.346,154.531Z" style="fill:rgb(128,151,41);fill-opacity:0.26;"/>
        <path d="M121.469,7.359C120.459,7.693 119.45,8.028 118.44,8.363C119.747,7.332 119.814,7.621 121.469,7.359Z" style="fill:rgb(127,148,41);fill-opacity:0.24;"/>
        <path d="M122.529,930.607C121.544,930.947 120.56,931.286 119.575,931.626C120.8,930.546 120.817,930.701 122.529,930.607Z" style="fill:rgb(117,149,78);fill-opacity:0.2;"/>
        <path d="M81.63,28.693C80.906,30.72 80.344,30.101 79.572,30.58C80.61,29.596 80.568,29.634 81.63,28.693Z" style="fill:rgb(110,129,81);fill-opacity:0.2;"/>
        <path d="M47.49,712.474C46.599,713.195 46.659,713.189 45.493,713.486L44.569,713.579C45.542,713.211 46.516,712.843 47.49,712.474Z" style="fill:rgb(108,137,52);fill-opacity:0.22;"/>
        <path d="M172.544,997.582C172.194,997.885 171.845,998.188 171.496,998.491L169.581,998.703C170.569,998.329 171.556,997.955 172.544,997.582Z" style="fill:rgb(123,145,39);fill-opacity:0.28;"/>
        <path d="M53.396,451.558C53.768,452.202 54.14,452.846 54.512,453.49C54.164,453.167 53.816,452.844 53.468,452.521L53.396,451.558Z" style="fill:rgb(169,190,37);fill-opacity:0.14;"/>
        <path d="M77.504,896.496C78.663,896.716 78.587,896.732 79.46,897.582C78.261,897.331 78.309,897.325 77.504,896.496Z" style="fill:rgb(169,189,38);fill-opacity:0.12;"/>
        <path d="M441.58,79.277C443.238,79.6 443.288,79.368 444.56,80.367C443.567,80.004 442.573,79.641 441.58,79.277Z" style="fill:rgb(120,143,40);fill-opacity:0.26;"/>
        <path d="M55.498,241.499C55.102,242.477 54.706,243.454 54.31,244.432C54.633,242.812 54.379,242.73 55.498,241.499Z" style="fill:rgb(128,152,42);fill-opacity:0.28;"/>
        <path d="M642.562,419.512C642.233,420.845 641.904,422.178 641.575,423.511C641.848,421.44 641.925,421.532 642.562,419.512Z" style="fill:rgb(96,125,59);fill-opacity:0.29;"/>
        <path d="M112.541,523.482C113.167,524.969 113.255,524.857 113.448,526.502C112.865,525.026 112.834,525.138 112.541,523.482Z" style="fill:rgb(108,142,52);fill-opacity:0.24;"/>
        <path d="M687.628,141.446C688.61,142.752 688.364,142.797 688.623,144.475C688.291,143.465 687.96,142.455 687.628,141.446Z" style="fill:rgb(120,146,39);fill-opacity:0.28;"/>
        <path d="M50.424,446.537C51.213,447.388 51.27,447.301 51.502,448.499C50.684,447.664 50.686,447.712 50.424,446.537Z" style="fill:rgb(158,183,44);fill-opacity:0.13;"/>
        <path d="M397.47,1021.566C398.479,1021.887 399.488,1022.207 400.497,1022.528C398.837,1022.276 398.797,1022.519 397.47,1021.566Z" style="fill:rgb(106,143,56);fill-opacity:0.25;"/>
        <path d="M682.537,127.484C683.511,128.859 683.263,128.876 683.517,130.497C683.19,129.493 682.864,128.489 682.537,127.484Z" style="fill:rgb(107,134,70);fill-opacity:0.24;"/>
        <path d="M340.454,979.506C340.79,980.509 341.127,981.513 341.463,982.517C340.467,981.171 340.72,981.152 340.454,979.506Z" style="fill:rgb(107,142,57);fill-opacity:0.25;"/>
        <path d="M248.675,61.325C251.324,61.455 251.269,61.409 251.494,61.43C250.026,61.894 250.038,61.894 248.675,61.325Z" style="fill:rgb(120,148,57);fill-opacity:0.16;"/>
        <path d="M513.461,66.397C512.482,66.775 511.502,67.152 510.522,67.53C511.811,66.452 511.878,66.699 513.461,66.397Z" style="fill:rgb(116,141,61);fill-opacity:0.26;"/>
        <path d="M59.536,50.534C59.282,51.661 59.224,51.593 58.415,52.45C58.688,51.271 58.692,51.339 59.536,50.534Z" style="fill:rgb(166,191,40);fill-opacity:0.14;"/>
        <path d="M136.25,984.924C135.333,985.114 134.416,985.304 133.499,985.494C134.868,985.023 134.746,984.883 136.25,984.924Z" style="fill:rgb(116,143,80);fill-opacity:0.21;"/>
        <path d="M44.569,713.579L45.493,713.486C45.253,713.716 45.616,714.162 43.741,714.765C44.017,714.369 44.293,713.974 44.569,713.579Z" style="fill:rgb(170,193,46);fill-opacity:0.15;"/>
        <path d="M537.522,930.455C538.163,930.826 538.804,931.197 539.445,931.568C538.282,931.219 538.375,931.228 537.522,930.455Z" style="fill:rgb(127,167,77);fill-opacity:0.23;"/>
        <path d="M153.673,999.192C155.172,998.972 155.114,999.051 156.498,999.53C154.981,999.486 155.075,999.472 153.673,999.192Z" style="fill:rgb(144,170,47);fill-opacity:0.27;"/>
        <path d="M55.399,454.555C55.764,455.205 56.128,455.856 56.493,456.506C55.683,455.671 55.676,455.737 55.399,454.555Z" style="fill:rgb(157,176,38);fill-opacity:0.21;"/>
        <path d="M628.526,66.444C629.67,66.696 629.622,66.672 630.489,67.514C629.834,67.157 629.18,66.801 628.526,66.444Z" style="fill:rgb(153,175,41);fill-opacity:0.22;"/>
        <path d="M29.39,854.567C30.156,855.411 30.222,855.336 30.518,856.484C29.707,855.663 29.679,855.735 29.39,854.567Z" style="fill:rgb(160,181,37);fill-opacity:0.2;"/>
        <path d="M70.53,211.522C70.164,212.174 69.797,212.827 69.43,213.479C69.708,212.304 69.71,212.365 70.53,211.522Z" style="fill:rgb(153,176,41);fill-opacity:0.21;"/>
        <path d="M645.517,409.502C645.403,411 645.405,410.921 645.119,412.33C644.905,410.846 644.978,410.905 645.517,409.502Z" style="fill:rgb(128,156,69);fill-opacity:0.24;"/>
        <path d="M565.187,616.638C565.468,618.073 565.482,617.977 565.524,619.499C565.058,618.055 564.988,618.094 565.187,616.638Z" style="fill:rgb(141,169,45);fill-opacity:0.27;"/>
        <path d="M668.498,99.501C669.266,100.376 669.303,100.314 669.555,101.48C668.815,100.587 668.783,100.652 668.498,99.501Z" style="fill:rgb(134,164,48);fill-opacity:0.2;"/>
        <path d="M621.487,62.535C622.656,62.777 622.559,62.786 623.464,63.547C622.324,63.302 622.381,63.272 621.487,62.535Z" style="fill:rgb(120,162,66);fill-opacity:0.17;"/>
        <path d="M545.483,934.546C546.637,934.808 546.54,934.812 547.442,935.586C546.789,935.24 546.136,934.893 545.483,934.546Z" style="fill:rgb(120,149,79);fill-opacity:0.18;"/>
        <path d="M263.488,1015.485C262.627,1016.284 262.679,1016.307 261.522,1016.568C262.177,1016.207 262.832,1015.846 263.488,1015.485Z" style="fill:rgb(148,171,40);fill-opacity:0.24;"/>
        <path d="M34.468,139.501C34.891,140.903 34.995,140.806 34.815,142.361C34.526,140.913 34.513,141.01 34.468,139.501Z" style="fill:rgb(143,164,45);fill-opacity:0.29;"/>
        <path d="M474.496,1001.497C474.223,1002.648 474.218,1002.55 473.43,1003.44C473.785,1002.793 474.141,1002.145 474.496,1001.497Z" style="fill:rgb(116,162,63);fill-opacity:0.19;"/>
        <path d="M175.588,998.46C175.914,999.122 176.241,999.785 176.568,1000.447C175.82,999.578 175.802,999.623 175.588,998.46Z" style="fill:rgb(116,160,62);fill-opacity:0.2;"/>
        <path d="M144.499,995.501C145.661,995.754 145.597,995.769 146.511,996.47C145.84,996.147 145.17,995.824 144.499,995.501Z" style="fill:rgb(117,137,77);fill-opacity:0.2;"/>
        <path d="M548.436,545.407C547.563,546.179 547.617,546.212 546.503,546.505C547.147,546.139 547.791,545.773 548.436,545.407Z" style="fill:rgb(116,159,61);fill-opacity:0.21;"/>
        <path d="M61.525,885.473C62.159,885.857 62.793,886.241 63.427,886.626C62.242,886.279 62.359,886.239 61.525,885.473Z" style="fill:rgb(140,162,46);fill-opacity:0.22;"/>
        <path d="M557.494,916.487C556.826,916.815 556.158,917.143 555.49,917.47C556.158,917.143 556.826,916.815 557.494,916.487Z" style="fill:rgb(110,134,77);fill-opacity:0.22;"/>
        <path d="M115.573,922.407C116.214,922.773 116.855,923.139 117.497,923.506C116.855,923.139 116.214,922.773 115.573,922.407Z" style="fill:rgb(116,140,83);fill-opacity:0.2;"/>
        <path d="M67.525,217.517C67.173,218.173 66.822,218.83 66.47,219.486C66.765,218.35 66.75,218.425 67.525,217.517Z" style="fill:rgb(124,146,64);fill-opacity:0.25;"/>
        <path d="M87.429,902.601C88.333,903.337 88.312,903.328 88.536,904.455C87.611,903.026 87.612,903.131 87.429,902.601Z" style="fill:rgb(72,92,34);fill-opacity:0.13;"/>
        <path d="M447.51,81.449C448.45,81.604 449.39,81.76 450.33,81.915C448.867,82.068 448.905,82.006 447.51,81.449Z" style="fill:rgb(116,141,75);fill-opacity:0.27;"/>
        <path d="M657.566,841.542C657.188,842.175 656.81,842.807 656.432,843.44C656.759,842.329 656.771,842.44 657.566,841.542Z" style="fill:rgb(115,160,60);fill-opacity:0.2;"/>
        <path d="M451.5,1018.504C452.911,1018.002 452.863,1017.926 454.304,1018.055C452.889,1018.37 452.961,1018.351 451.5,1018.504Z" style="fill:rgb(116,146,75);fill-opacity:0.27;"/>
        <path d="M185.704,9.055C187.167,8.898 187.111,8.987 188.475,9.549C187.551,9.384 186.628,9.219 185.704,9.055Z" style="fill:rgb(102,126,52);fill-opacity:0.19;"/>
        <path d="M66.47,219.486C66.19,220.651 66.162,220.585 65.452,221.474C65.791,220.811 66.131,220.149 66.47,219.486Z" style="fill:rgb(109,131,76);fill-opacity:0.23;"/>
        <path d="M665.493,828.497C665.14,829.151 664.788,829.804 664.436,830.457C664.788,829.804 665.14,829.151 665.493,828.497Z" style="fill:rgb(114,156,59);fill-opacity:0.22;"/>
        <path d="M20.381,843.578C21.123,844.462 21.158,844.401 21.458,845.539C21.099,844.885 20.74,844.232 20.381,843.578Z" style="fill:rgb(115,147,62);fill-opacity:0.23;"/>
        <path d="M633.525,717.456C634.171,717.82 634.816,718.184 635.461,718.548C634.816,718.184 634.171,717.82 633.525,717.456Z" style="fill:rgb(115,145,68);fill-opacity:0.23;"/>
        <path d="M546.503,546.505C545.873,546.868 545.243,547.232 544.613,547.595C545.243,547.232 545.873,546.868 546.503,546.505Z" style="fill:rgb(107,129,77);fill-opacity:0.25;"/>
        <path d="M54.443,186.538C54.815,187.175 55.187,187.813 55.559,188.451C55.187,187.813 54.815,187.175 54.443,186.538Z" style="fill:rgb(115,136,81);fill-opacity:0.22;"/>
        <path d="M374.501,62.489C375.993,62.605 375.915,62.602 377.347,62.901C375.848,63.019 375.943,62.935 374.501,62.489Z" style="fill:rgb(124,152,54);fill-opacity:0.3;"/>
        <path d="M205.499,1014.488C206.931,1014.004 206.834,1013.94 208.304,1014.061C206.885,1014.361 206.956,1014.349 205.499,1014.488Z" style="fill:rgb(116,146,74);fill-opacity:0.29;"/>
        <path d="M311.665,991.664C311.243,992.218 310.821,992.772 310.399,993.325C310.789,992.245 310.826,992.368 311.665,991.664Z" style="fill:rgb(120,157,67);fill-opacity:0.18;"/>
        <path d="M88.465,24.435C87.818,24.801 87.171,25.166 86.524,25.532C87.171,25.166 87.818,24.801 88.465,24.435Z" style="fill:rgb(118,147,54);fill-opacity:0.26;"/>
        <path d="M639.519,73.467C640.16,73.836 640.801,74.205 641.442,74.574C640.801,74.205 640.16,73.836 639.519,73.467Z" style="fill:rgb(114,136,80);fill-opacity:0.23;"/>
        <path d="M218.501,27.498C219.143,27.862 219.785,28.226 220.427,28.59C219.785,28.226 219.143,27.862 218.501,27.498Z" style="fill:rgb(114,156,60);fill-opacity:0.24;"/>
        <path d="M690.476,151.508C691.054,152.934 691.074,152.9 690.911,154.391L690.476,151.508Z" style="fill:rgb(102,127,66);fill-opacity:0.25;"/>
        <path d="M57.558,882.436C58.185,882.823 58.811,883.209 59.437,883.596C58.811,883.209 58.185,882.823 57.558,882.436Z" style="fill:rgb(121,151,54);fill-opacity:0.24;"/>
        <path d="M660.464,746.521C660.818,747.176 661.172,747.831 661.526,748.486C661.172,747.831 660.818,747.176 660.464,746.521Z" style="fill:rgb(107,130,75);fill-opacity:0.27;"/>
        <path d="M393.501,65.49C394.449,65.625 395.396,65.76 396.344,65.895C394.849,66.002 394.947,65.946 393.501,65.49Z" style="fill:rgb(119,150,59);fill-opacity:0.32;"/>
        <path d="M607.574,492.55C607.201,493.187 606.827,493.824 606.454,494.461C606.827,493.824 607.201,493.187 607.574,492.55Z" style="fill:rgb(113,151,60);fill-opacity:0.24;"/>
        <path d="M95.566,908.423C96.193,908.81 96.82,909.197 97.447,909.584C96.82,909.197 96.193,908.81 95.566,908.423Z" style="fill:rgb(119,146,62);fill-opacity:0.24;"/>
        <path d="M43.464,167.52C43.824,168.17 44.185,168.821 44.545,169.472C43.809,168.558 43.813,168.664 43.464,167.52Z" style="fill:rgb(110,132,76);fill-opacity:0.27;"/>
        <path d="M559.449,915.424C558.525,916.18 558.627,916.182 557.494,916.487C558.146,916.133 558.797,915.779 559.449,915.424Z" style="fill:rgb(111,136,77);fill-opacity:0.27;"/>
        <path d="M36.464,719.443C35.83,719.819 35.195,720.196 34.56,720.573C35.195,720.196 35.83,719.819 36.464,719.443Z" style="fill:rgb(113,135,80);fill-opacity:0.24;"/>
        <path d="M233.576,1014.403C234.215,1014.774 234.853,1015.145 235.491,1015.516C234.853,1015.145 234.215,1014.774 233.576,1014.403Z" style="fill:rgb(113,137,78);fill-opacity:0.25;"/>
        <path d="M513.458,998.442C512.819,998.818 512.18,999.194 511.541,999.57C512.18,999.194 512.819,998.818 513.458,998.442Z" style="fill:rgb(116,147,63);fill-opacity:0.27;"/>
        <path d="M62.563,46.558C62.173,47.182 61.783,47.807 61.393,48.432C61.783,47.807 62.173,47.182 62.563,46.558Z" style="fill:rgb(115,151,65);fill-opacity:0.24;"/>
        <path d="M551.433,987.423C550.8,987.802 550.167,988.18 549.534,988.559C550.167,988.18 550.8,987.802 551.433,987.423Z" style="fill:rgb(112,150,62);fill-opacity:0.26;"/>
        <path d="M137.496,987.501C137.851,988.151 138.206,988.8 138.561,989.449C138.206,988.8 137.851,988.151 137.496,987.501Z" style="fill:rgb(111,151,59);fill-opacity:0.27;"/>
        <path d="M666.608,238.575C666.213,239.197 665.819,239.819 665.425,240.441C665.819,239.819 666.213,239.197 666.608,238.575Z" style="fill:rgb(111,133,78);fill-opacity:0.25;"/>
        <path d="M555.465,541.451C554.545,542.224 554.643,542.222 553.528,542.554C554.174,542.187 554.82,541.819 555.465,541.451Z" style="fill:rgb(115,145,62);fill-opacity:0.28;"/>
        <path d="M548.552,936.408C549.182,936.793 549.813,937.178 550.444,937.563C549.813,937.178 549.182,936.793 548.552,936.408Z" style="fill:rgb(109,151,57);fill-opacity:0.27;"/>
        <path d="M676.522,221.508C676.178,222.17 675.834,222.831 675.489,223.493C675.834,222.831 676.178,222.17 676.522,221.508Z" style="fill:rgb(107,147,57);fill-opacity:0.28;"/>
        <path d="M17.555,736.55C17.165,737.173 16.775,737.797 16.384,738.42C16.775,737.797 17.165,737.173 17.555,736.55Z" style="fill:rgb(115,143,60);fill-opacity:0.25;"/>
        <path d="M50.414,180.548C50.801,181.178 51.187,181.809 51.573,182.439C51.187,181.809 50.801,181.178 50.414,180.548Z" style="fill:rgb(124,149,51);fill-opacity:0.29;"/>
        <path d="M28.495,374.5C28.877,375.924 29.001,375.838 28.913,377.367C28.609,375.921 28.621,375.992 28.495,374.5Z" style="fill:rgb(116,148,61);fill-opacity:0.32;"/>
        <path d="M85.448,26.418C84.816,26.801 84.183,27.183 83.55,27.565C84.183,27.183 84.816,26.801 85.448,26.418Z" style="fill:rgb(110,131,77);fill-opacity:0.27;"/>
        <path d="M344.44,988.534C344.817,989.172 345.193,989.809 345.569,990.446C345.193,989.809 344.817,989.172 344.44,988.534Z" style="fill:rgb(111,142,62);fill-opacity:0.3;"/>
        <path d="M664.392,93.591C664.789,94.209 665.187,94.827 665.584,95.445C665.187,94.827 664.789,94.209 664.392,93.591Z" style="fill:rgb(112,133,80);fill-opacity:0.26;"/>
        <path d="M672.49,800.499C672.351,801.449 672.212,802.399 672.073,803.349C672.004,801.887 672.073,801.95 672.49,800.499Z" style="fill:rgb(109,147,59);fill-opacity:0.33;"/>
        <path d="M111.629,936.687C111.191,937.241 110.753,937.795 110.315,938.349C110.753,937.795 111.191,937.241 111.629,936.687Z" style="fill:rgb(116,150,62);fill-opacity:0.25;"/>
        <path d="M47.466,175.518C47.826,176.168 48.187,176.818 48.547,177.468C48.187,176.818 47.826,176.168 47.466,175.518Z" style="fill:rgb(106,129,72);fill-opacity:0.32;"/>
        <path d="M295.604,998.85C294.59,999.402 294.667,999.378 293.5,999.503C294.202,999.285 294.903,999.067 295.604,998.85Z" style="fill:rgb(111,141,68);fill-opacity:0.29;"/>
        <path d="M486.402,1002.925C487.101,1003.115 487.801,1003.306 488.5,1003.496C487.36,1003.377 487.414,1003.4 486.402,1002.925Z" style="fill:rgb(105,137,66);fill-opacity:0.3;"/>
    </g>
</svg>
