<svg width="901" height="901" viewBox="0 0 901 901" fill="none" xmlns="http://www.w3.org/2000/svg">
<path d="M497.917 272.75C533.815 334.928 512.511 414.435 450.333 450.333C388.155 486.232 308.649 464.928 272.75 402.75C236.852 340.572 258.155 261.065 320.333 225.167C382.511 189.268 462.018 210.572 497.917 272.75Z" fill="#D89941"/>
<path d="M627.917 497.916C663.815 560.095 642.511 639.601 580.333 675.5C518.155 711.398 438.649 690.095 402.75 627.916C366.852 565.738 388.155 486.232 450.333 450.333C512.511 414.435 592.018 435.738 627.917 497.916Z" fill="#D89941"/>
<path d="M677.58 323.936C713.478 386.114 692.175 465.621 629.997 501.519C567.819 537.418 488.312 516.114 452.413 453.936C416.515 391.758 437.819 312.251 499.997 276.353C562.175 240.454 641.681 261.758 677.58 323.936Z" fill="#D89941"/>
<path d="M450.333 450.333C486.232 512.511 464.928 592.018 402.75 627.916C340.572 663.815 261.065 642.511 225.167 580.333C189.268 518.155 210.572 438.648 272.75 402.75C334.928 366.851 414.435 388.155 450.333 450.333Z" fill="#D89941"/>
</svg>
