<svg width="798" height="901" viewBox="0 0 798 901" fill="none" xmlns="http://www.w3.org/2000/svg">
<path d="M299.112 272.75C361.29 308.648 382.594 388.155 346.696 450.333C310.797 512.511 231.29 533.815 169.112 497.916C106.934 462.018 85.6304 382.511 121.529 320.333C157.427 258.155 236.934 236.851 299.112 272.75Z" fill="#BF5BB9"/>
<path d="M524.279 402.75C586.457 438.648 607.761 518.155 571.862 580.333C535.964 642.511 456.457 663.815 394.279 627.916C332.101 592.018 310.797 512.511 346.696 450.333C382.594 388.155 462.101 366.851 524.279 402.75Z" fill="#BF5BB9"/>
<path d="M480.298 227.247C542.476 263.145 563.78 342.652 527.881 404.83C491.983 467.008 412.476 488.312 350.298 452.413C288.12 416.515 266.816 337.008 302.715 274.83C338.613 212.652 418.12 191.348 480.298 227.247Z" fill="#BF5BB9"/>
<path d="M346.696 450.333C408.874 486.232 430.177 565.738 394.279 627.916C358.38 690.095 278.874 711.398 216.696 675.5C154.517 639.601 133.214 560.095 169.112 497.916C205.011 435.738 284.517 414.435 346.696 450.333Z" fill="#BF5BB9"/>
</svg>
