<svg width="685" height="736" viewBox="0 0 685 736" fill="none" xmlns="http://www.w3.org/2000/svg">
<path d="M367.696 183.848C418.464 234.616 418.464 316.927 367.696 367.696C316.927 418.464 234.616 418.464 183.848 367.696C133.08 316.927 133.08 234.616 183.848 183.848C234.616 133.08 316.927 133.08 367.696 183.848Z" fill="#CE3D3D"/>
<path d="M551.543 367.696C602.311 418.464 602.311 500.775 551.543 551.543C500.775 602.311 418.464 602.311 367.696 551.543C316.927 500.775 316.927 418.464 367.696 367.696C418.464 316.927 500.775 316.927 551.543 367.696Z" fill="#CE3D3D"/>
<path d="M554.485 186.789C605.253 237.557 605.253 319.869 554.485 370.637C503.717 421.405 421.405 421.405 370.637 370.637C319.869 319.869 319.869 237.557 370.637 186.789C421.405 136.021 503.717 136.021 554.485 186.789Z" fill="#CE3D3D"/>
<path d="M367.696 367.696C418.464 418.464 418.464 500.775 367.696 551.543C316.927 602.311 234.616 602.311 183.848 551.543C133.08 500.775 133.08 418.464 183.848 367.696C234.616 316.927 316.927 316.927 367.696 367.696Z" fill="#CE3D3D"/>
</svg>
